<?xml version="1.0" encoding="UTF-8" standalone="no"?>
<!-- Created with Inkscape (http://www.inkscape.org/) -->

<svg
   xmlns:dc="http://purl.org/dc/elements/1.1/"
   xmlns:cc="http://creativecommons.org/ns#"
   xmlns:rdf="http://www.w3.org/1999/02/22-rdf-syntax-ns#"
   xmlns:svg="http://www.w3.org/2000/svg"
   xmlns="http://www.w3.org/2000/svg"
   xmlns:xlink="http://www.w3.org/1999/xlink"
   xmlns:sodipodi="http://sodipodi.sourceforge.net/DTD/sodipodi-0.dtd"
   xmlns:inkscape="http://www.inkscape.org/namespaces/inkscape"
   width="75"
   height="45"
   id="svg2"
   version="1.1"
   inkscape:version="0.48.2 r9819"
   sodipodi:docname="road__construction.svg"
   inkscape:export-filename="I:\OSM\potgit6\potlatch2\resources\features\road__construction.png"
   inkscape:export-xdpi="90"
   inkscape:export-ydpi="90">
  <title
     id="title4021">Road under construction</title>
  <defs
     id="defs4">
    <linearGradient
       id="linearGradient3957">
      <stop
         style="stop-color:#666666;stop-opacity:1;"
         offset="0"
         id="stop3959" />
      <stop
         style="stop-color:#3d3d04;stop-opacity:1;"
         offset="1"
         id="stop3961" />
    </linearGradient>
    <inkscape:path-effect
       effect="spiro"
       id="path-effect3955"
       is_visible="true" />
    <linearGradient
       inkscape:collect="always"
       id="linearGradient3803">
      <stop
         style="stop-color:#808000;stop-opacity:1;"
         offset="0"
         id="stop3805" />
      <stop
         style="stop-color:#696917;stop-opacity:1"
         offset="1"
         id="stop3807" />
    </linearGradient>
    <linearGradient
       id="linearGradient3757">
      <stop
         style="stop-color:#7cdf77;stop-opacity:1;"
         offset="0"
         id="stop3759" />
      <stop
         style="stop-color:#3a6e48;stop-opacity:1;"
         offset="1"
         id="stop3761" />
    </linearGradient>
    <linearGradient
       inkscape:collect="always"
       xlink:href="#linearGradient3757"
       id="linearGradient3763"
       x1="20"
       y1="1027.3622"
       x2="20"
       y2="1052.3622"
       gradientUnits="userSpaceOnUse"
       gradientTransform="matrix(0.99526061,0,0,1.2706137,0,-284.28879)" />
    <linearGradient
       inkscape:collect="always"
       xlink:href="#linearGradient3757-7"
       id="linearGradient3763-1"
       x1="20"
       y1="1027.3622"
       x2="20"
       y2="1052.3622"
       gradientUnits="userSpaceOnUse" />
    <linearGradient
       id="linearGradient3757-7">
      <stop
         style="stop-color:#1d84d6;stop-opacity:1;"
         offset="0"
         id="stop3759-4" />
      <stop
         style="stop-color:#7fd4d4;stop-opacity:1;"
         offset="1"
         id="stop3761-0" />
    </linearGradient>
    <linearGradient
       gradientTransform="matrix(0.99519693,0,0,0.63443946,0.00479859,354.92862)"
       y2="1052.3622"
       x2="20"
       y1="1027.3622"
       x1="20"
       gradientUnits="userSpaceOnUse"
       id="linearGradient3782"
       xlink:href="#linearGradient3757-7"
       inkscape:collect="always" />
    <linearGradient
       inkscape:collect="always"
       xlink:href="#linearGradient3803"
       id="linearGradient3809"
       x1="20"
       y1="45"
       x2="30"
       y2="15"
       gradientUnits="userSpaceOnUse"
       gradientTransform="translate(0,1007.3622)" />
    <linearGradient
       inkscape:collect="always"
       xlink:href="#linearGradient3957"
       id="linearGradient3963"
       x1="5.6128626"
       y1="34.200415"
       x2="22.230701"
       y2="34.200415"
       gradientUnits="userSpaceOnUse"
       gradientTransform="matrix(0.67831011,0,0,0.12785823,7.1327658,1043.962)" />
    <linearGradient
       inkscape:collect="always"
       xlink:href="#linearGradient3957-0"
       id="linearGradient3963-6"
       x1="5.6128626"
       y1="34.200417"
       x2="22.230701"
       y2="34.200417"
       gradientUnits="userSpaceOnUse" />
    <linearGradient
       id="linearGradient3957-0">
      <stop
         style="stop-color:#666666;stop-opacity:1;"
         offset="0"
         id="stop3959-3" />
      <stop
         style="stop-color:#3d3d04;stop-opacity:1;"
         offset="1"
         id="stop3961-6" />
    </linearGradient>
    <inkscape:path-effect
       effect="spiro"
       id="path-effect3955-2"
       is_visible="true" />
    <linearGradient
       gradientTransform="matrix(0.35098577,0,0,0.15112864,29.78008,1025.5002)"
       y2="34.200417"
       x2="22.230701"
       y1="34.200417"
       x1="5.6128626"
       gradientUnits="userSpaceOnUse"
       id="linearGradient3981"
       xlink:href="#linearGradient3957-0"
       inkscape:collect="always" />
    <linearGradient
       inkscape:collect="always"
       xlink:href="#linearGradient3957-8"
       id="linearGradient3963-5"
       x1="5.6128626"
       y1="34.200417"
       x2="22.230701"
       y2="34.200417"
       gradientUnits="userSpaceOnUse" />
    <linearGradient
       id="linearGradient3957-8">
      <stop
         style="stop-color:#666666;stop-opacity:1;"
         offset="0"
         id="stop3959-8" />
      <stop
         style="stop-color:#3d3d04;stop-opacity:1;"
         offset="1"
         id="stop3961-1" />
    </linearGradient>
    <inkscape:path-effect
       effect="spiro"
       id="path-effect3955-21"
       is_visible="true" />
    <linearGradient
       gradientTransform="matrix(0.53236172,0,0,0.6362426,-1.7811169,1010.2477)"
       y2="34.200417"
       x2="22.230701"
       y1="34.200417"
       x1="5.6128626"
       gradientUnits="userSpaceOnUse"
       id="linearGradient3981-4"
       xlink:href="#linearGradient3957-8"
       inkscape:collect="always" />
    <linearGradient
       inkscape:collect="always"
       xlink:href="#linearGradient3957"
       id="linearGradient4041"
       gradientUnits="userSpaceOnUse"
       gradientTransform="matrix(1.3193475,0,0,0.25540943,3.2040629,1064.4129)"
       x1="5.6128626"
       y1="34.200415"
       x2="22.230701"
       y2="34.200415" />
    <linearGradient
       gradientTransform="matrix(0.35098577,0,0,0.15112864,29.78008,1025.5002)"
       y2="34.200417"
       x2="22.230701"
       y1="34.200417"
       x1="5.6128626"
       gradientUnits="userSpaceOnUse"
       id="linearGradient3981-8"
       xlink:href="#linearGradient3957-0-2"
       inkscape:collect="always" />
    <linearGradient
       id="linearGradient3957-0-2">
      <stop
         style="stop-color:#666666;stop-opacity:1;"
         offset="0"
         id="stop3959-3-4" />
      <stop
         style="stop-color:#3d3d04;stop-opacity:1;"
         offset="1"
         id="stop3961-6-5" />
    </linearGradient>
    <inkscape:path-effect
       effect="spiro"
       id="path-effect3955-2-2"
       is_visible="true" />
    <linearGradient
       y2="34.200417"
       x2="22.230701"
       y1="34.200417"
       x1="5.6128626"
       gradientTransform="matrix(0.56425048,0,0,0.22862017,1.2619418,1033.6826)"
       gradientUnits="userSpaceOnUse"
       id="linearGradient4059"
       xlink:href="#linearGradient3957-0-2"
       inkscape:collect="always" />
    <linearGradient
       y2="34.200417"
       x2="22.230701"
       y1="34.200417"
       x1="5.6128626"
       gradientTransform="matrix(0.56425048,0,0,0.22862017,1.2619418,1033.6826)"
       gradientUnits="userSpaceOnUse"
       id="linearGradient4059-9"
       xlink:href="#linearGradient3957-0-2-8"
       inkscape:collect="always" />
    <linearGradient
       id="linearGradient3957-0-2-8">
      <stop
         style="stop-color:#666666;stop-opacity:1;"
         offset="0"
         id="stop3959-3-4-3" />
      <stop
         style="stop-color:#3d3d04;stop-opacity:1;"
         offset="1"
         id="stop3961-6-5-8" />
    </linearGradient>
    <inkscape:path-effect
       effect="spiro"
       id="path-effect3955-2-2-6"
       is_visible="true" />
    <linearGradient
       y2="34.200417"
       x2="22.230701"
       y1="34.200417"
       x1="5.6128626"
       gradientTransform="matrix(0.68066895,0,0,0.32843228,4.2017631,1036.6314)"
       gradientUnits="userSpaceOnUse"
       id="linearGradient4096"
       xlink:href="#linearGradient3957-0-2-8"
       inkscape:collect="always" />
  </defs>
  <sodipodi:namedview
     id="base"
     pagecolor="#ffffff"
     bordercolor="#666666"
     borderopacity="1.0"
     inkscape:pageopacity="0.0"
     inkscape:pageshadow="2"
     inkscape:zoom="6.2164001"
     inkscape:cx="42.246171"
     inkscape:cy="12.610608"
     inkscape:document-units="px"
     inkscape:current-layer="layer1"
     showgrid="false"
     width="75px"
     inkscape:window-width="979"
     inkscape:window-height="729"
     inkscape:window-x="551"
     inkscape:window-y="165"
     inkscape:window-maximized="0">
    <inkscape:grid
       type="xygrid"
       id="grid2987"
       empspacing="5"
       visible="true"
       enabled="true"
       snapvisiblegridlinesonly="true" />
  </sodipodi:namedview>
  <metadata
     id="metadata7">
    <rdf:RDF>
      <cc:Work
         rdf:about="">
        <dc:format>image/svg+xml</dc:format>
        <dc:type
           rdf:resource="http://purl.org/dc/dcmitype/StillImage" />
        <dc:title>Road under construction</dc:title>
      </cc:Work>
    </rdf:RDF>
  </metadata>
  <g
     inkscape:label="Layer 1"
     inkscape:groupmode="layer"
     id="layer1"
     transform="translate(0,-1007.3622)">
    <rect
       style="fill:url(#linearGradient3763);fill-opacity:1;fill-rule:nonzero;stroke:none"
       id="rect2985"
       width="75"
       height="30.041048"
       x="0"
       y="1022.3622" />
    <rect
       style="fill:url(#linearGradient3782);fill-opacity:1;fill-rule:nonzero;stroke:none"
       id="rect2985-9"
       width="74.995201"
       height="15.000017"
       x="0.0047985958"
       y="1007.3622" />
    <path
       style="fill:url(#linearGradient3809);fill-opacity:1;stroke:#4c5018;stroke-width:1px;stroke-linecap:butt;stroke-linejoin:miter;stroke-opacity:1"
       d="m 30,1022.3622 -15,30 15,0 5,-30 z"
       id="path3801"
       inkscape:connector-curvature="0"
       sodipodi:nodetypes="ccccc" />
    <path
       style="fill:none;stroke:#e2e04c;stroke-width:2.5;stroke-linecap:butt;stroke-linejoin:miter;stroke-miterlimit:7.0999999;stroke-opacity:1;stroke-dasharray:none"
       d="m 28.430924,1035.0837 c 0,0 10,10 0,15"
       id="path3815"
       inkscape:connector-curvature="0" />
    <path
       style="fill:#e7e901;fill-opacity:1;stroke:#e6a430;stroke-width:1.79999994999999990;stroke-linecap:butt;stroke-linejoin:miter;stroke-miterlimit:4;stroke-opacity:1;stroke-dasharray:none"
       d="m 36.998904,1037.2409 -0.160864,7.5606 20.268965,0.4826 0,-8.0432 -5.791133,-0.1609 0.241295,-7.2389 -6.515023,0 -3.539026,7.2389 z"
       id="path3817"
       inkscape:connector-curvature="0"
       sodipodi:nodetypes="ccccccccc" />
    <path
       style="fill:#262616;fill-opacity:1;stroke:#000000;stroke-width:1px;stroke-linecap:butt;stroke-linejoin:miter;stroke-opacity:1"
       d="m 35.229391,1047.0536 4.182485,-4.3433 10.938807,-0.1609 6.112863,3.3782 0.482594,4.3433 -22.038478,-0.1608 z"
       id="path3819"
       inkscape:connector-curvature="0"
       sodipodi:nodetypes="ccccccc" />
    <path
       sodipodi:type="arc"
       style="fill:#5c5c5c;fill-opacity:1;fill-rule:evenodd;stroke:#000000;stroke-width:1px;stroke-linecap:butt;stroke-linejoin:miter;stroke-opacity:1"
       id="path3823"
       sodipodi:cx="50.672413"
       sodipodi:cy="29.074385"
       sodipodi:rx="2.8955665"
       sodipodi:ry="2.8955665"
       d="m 49.275092,31.610484 a 2.8955665,2.8955665 0 1 1 0.0117,0.0064"
       transform="translate(-10.456213,1018.1401)"
       sodipodi:start="2.0743857"
       sodipodi:end="8.3529623"
       sodipodi:open="true" />
    <path
       sodipodi:type="arc"
       style="fill:#5c5c5c;fill-opacity:1;fill-rule:evenodd;stroke:#000000;stroke-width:1px;stroke-linecap:butt;stroke-linejoin:miter;stroke-opacity:1"
       id="path3823-4"
       sodipodi:cx="50.672413"
       sodipodi:cy="29.074385"
       sodipodi:rx="2.8955665"
       sodipodi:ry="2.8955665"
       d="m 49.275092,31.610484 a 2.8955665,2.8955665 0 1 1 0.0117,0.0064"
       transform="translate(-4.3433499,1017.9792)"
       sodipodi:start="2.0743857"
       sodipodi:end="8.3529623"
       sodipodi:open="true" />
    <path
       sodipodi:type="arc"
       style="fill:#5c5c5c;fill-opacity:1;fill-rule:evenodd;stroke:#000000;stroke-width:1px;stroke-linecap:butt;stroke-linejoin:miter;stroke-opacity:1"
       id="path3823-8"
       sodipodi:cx="50.672413"
       sodipodi:cy="29.074385"
       sodipodi:rx="2.8955665"
       sodipodi:ry="2.8955665"
       d="m 49.275092,31.610484 a 2.8955665,2.8955665 0 1 1 0.0117,0.0064"
       transform="translate(2.091242,1017.9792)"
       sodipodi:start="2.0743857"
       sodipodi:end="8.3529623"
       sodipodi:open="true" />
    <path
       style="fill:none;stroke:#f2f294;stroke-width:1px;stroke-linecap:butt;stroke-linejoin:miter;stroke-opacity:1"
       d="m 32.17296,1047.858 c 25.255774,0.3217 23.968856,-1.7696 23.968856,-1.7696"
       id="path3821"
       inkscape:connector-curvature="0"
       sodipodi:nodetypes="cc" />
    <path
       style="fill:#5cc0de;fill-opacity:1;stroke:none"
       d="m 50.028953,1030.6454 -0.160864,6.5955 -7.238916,0 z"
       id="path3861"
       inkscape:connector-curvature="0"
       sodipodi:nodetypes="cccc" />
    <path
       style="fill:none;stroke:#f2f294;stroke-width:1px;stroke-linecap:butt;stroke-linejoin:miter;stroke-opacity:1"
       d="m 32.087024,1041.1652 c 25.255774,0.3217 23.968856,-1.7695 23.968856,-1.7695"
       id="path3821-2"
       inkscape:connector-curvature="0"
       sodipodi:nodetypes="cc" />
    <path
       style="fill:none;stroke:#e2e04c;stroke-width:1.33077335;stroke-linecap:butt;stroke-linejoin:miter;stroke-miterlimit:7.0999999;stroke-opacity:1;stroke-dasharray:none"
       d="m 21.806487,1026.1913 c 0,0 -5.564317,5.0924 0,7.6386"
       id="path3815-7"
       inkscape:connector-curvature="0" />
    <path
       style="fill:#cccc01;fill-opacity:1;stroke:#5c510b;stroke-width:1.132;stroke-linecap:butt;stroke-linejoin:miter;stroke-opacity:1;stroke-miterlimit:4;stroke-dasharray:none"
       d="m 17.038992,1027.2899 0.08951,3.8501 -11.278293,0.2458 0,-4.0959 4.923064,-0.082 -0.04475,-3.6863 1.83496,0 1.969225,3.6863 z"
       id="path3817-7"
       inkscape:connector-curvature="0"
       sodipodi:nodetypes="ccccccccc"
       inkscape:export-filename="I:\OSM\potgit6\potlatch2\resources\features\path3817-7.png"
       inkscape:export-xdpi="90"
       inkscape:export-ydpi="90" />
    <path
       style="fill:#262616;fill-opacity:1;stroke:#000000;stroke-width:0.53230935px;stroke-linecap:butt;stroke-linejoin:miter;stroke-opacity:1"
       d="m 18.023605,1032.2868 -2.327267,-2.2117 -6.086699,-0.082 -3.401391,1.7204 -0.26853,2.2117 12.262906,-0.082 z"
       id="path3819-1"
       inkscape:connector-curvature="0"
       sodipodi:nodetypes="ccccccc" />
    <path
       sodipodi:type="arc"
       style="fill:#5c5c5c;fill-opacity:1;fill-rule:evenodd;stroke:#000000;stroke-width:1px;stroke-linecap:butt;stroke-linejoin:miter;stroke-opacity:1"
       id="path3823-2"
       sodipodi:cx="50.672413"
       sodipodi:cy="29.074385"
       sodipodi:rx="2.8955665"
       sodipodi:ry="2.8955665"
       d="m 49.275092,31.610484 a 2.8955665,2.8955665 0 1 1 0.0117,0.0064"
       transform="matrix(-0.55643165,0,0,0.50923276,43.444519,1017.5631)"
       sodipodi:start="2.0743857"
       sodipodi:end="8.3529623"
       sodipodi:open="true" />
    <path
       sodipodi:type="arc"
       style="fill:#5c5c5c;fill-opacity:1;fill-rule:evenodd;stroke:#000000;stroke-width:1px;stroke-linecap:butt;stroke-linejoin:miter;stroke-opacity:1"
       id="path3823-4-6"
       sodipodi:cx="50.672413"
       sodipodi:cy="29.074385"
       sodipodi:rx="2.8955665"
       sodipodi:ry="2.8955665"
       d="m 49.275092,31.610484 a 2.8955665,2.8955665 0 1 1 0.0117,0.0064"
       transform="matrix(-0.55643165,0,0,0.50923276,40.04313,1017.4812)"
       sodipodi:start="2.0743857"
       sodipodi:end="8.3529623"
       sodipodi:open="true" />
    <path
       sodipodi:type="arc"
       style="fill:#5c5c5c;fill-opacity:1;fill-rule:evenodd;stroke:#000000;stroke-width:1px;stroke-linecap:butt;stroke-linejoin:miter;stroke-opacity:1"
       id="path3823-8-0"
       sodipodi:cx="50.672413"
       sodipodi:cy="29.074385"
       sodipodi:rx="2.8955665"
       sodipodi:ry="2.8955665"
       d="m 49.275092,31.610484 a 2.8955665,2.8955665 0 1 1 0.0117,0.0064"
       transform="matrix(-0.55643165,0,0,0.50923276,36.46272,1017.4812)"
       sodipodi:start="2.0743857"
       sodipodi:end="8.3529623"
       sodipodi:open="true" />
    <path
       style="fill:none;stroke:#f2f294;stroke-width:0.53230935px;stroke-linecap:butt;stroke-linejoin:miter;stroke-opacity:1"
       d="M 19.724299,1032.6964 C 5.671187,1032.8603 6.38727,1031.7953 6.38727,1031.7953"
       id="path3821-4"
       inkscape:connector-curvature="0"
       sodipodi:nodetypes="cc" />
    <path
       style="fill:#5cc0de;fill-opacity:1;stroke:none"
       d="m 11.399844,1024.0132 0,3.2767 2.506287,0 z"
       id="path3861-9"
       inkscape:connector-curvature="0" />
    <path
       style="fill:none;stroke:#f2f294;stroke-width:0.53230935px;stroke-linecap:butt;stroke-linejoin:miter;stroke-opacity:1"
       d="m 19.772117,1029.2882 c -14.053112,0.1639 -13.33703,-0.901 -13.33703,-0.901"
       id="path3821-2-4"
       inkscape:connector-curvature="0"
       sodipodi:nodetypes="cc" />
    <path
       style="fill:url(#linearGradient3981);fill-opacity:1;stroke:#616026;stroke-width:0.23031282px;stroke-linecap:butt;stroke-linejoin:miter;stroke-opacity:1"
       d="m 31.925608,1031.6446 0.112923,-0.2431 c -0.0017,-0.01 -0.0017,-0.016 0,-0.024 0.002,-0.01 0.0064,-0.018 0.01176,-0.026 0.0053,-0.01 0.01157,-0.015 0.01771,-0.022 0.0061,-0.01 0.01223,-0.015 0.01716,-0.023 0.0049,-0.01 0.0087,-0.017 0.0098,-0.026 9.82e-4,-0.01 -2.1e-5,-0.016 -7.68e-4,-0.024 -7.47e-4,-0.01 -0.0012,-0.017 7.68e-4,-0.024 0.0019,-0.01 0.006,-0.014 0.01091,-0.021 0.0049,-0.01 0.01076,-0.011 0.01659,-0.016 0.0058,-0.01 0.01174,-0.01 0.0169,-0.016 0.0052,-0.01 0.0096,-0.013 0.01205,-0.02 0.0038,-0.012 0.0028,-0.024 0.0017,-0.036 -0.0011,-0.012 -0.0017,-0.024 -0.0017,-0.037 0,-0.016 0,-0.033 0,-0.049 0,-0.081 0,-0.1621 0,-0.2432 0,-0.097 0,-0.1945 0,-0.2917 0,-0.025 -0.0022,-0.049 -0.0057,-0.074 -0.0018,-0.012 -0.0035,-0.024 -0.0032,-0.037 2.55e-4,-0.012 0.0026,-0.025 0.0089,-0.035 0.0056,-0.01 0.01423,-0.017 0.0243,-0.021 0.01007,-0 0.02151,-0.01 0.03216,-0 -0.0033,-0.01 -0.0033,-0.016 0,-0.024 0.0025,-0.01 0.0069,-0.011 0.0118,-0.015 0.0049,-0 0.01047,-0.01 0.016,-0.01 0.0055,-0 0.01111,-0.01 0.01617,-0.01 0.0051,-0 0.0096,-0.01 0.0125,-0.014 0.0038,-0.01 0.0045,-0.016 0.0039,-0.024 -6.49e-4,-0.01 -0.0026,-0.016 -0.0039,-0.025 -0.0013,-0.01 -0.0019,-0.016 0,-0.024 0.0028,-0.012 0.01127,-0.022 0.0222,-0.026 0.01093,-0 0.02403,-0 0.03427,0 l 0,-0.024 0.05646,-0.024 c -0.0023,-0 -0.0035,-0.01 -0.0035,-0.012 0,-0 0.0012,-0.01 0.0035,-0.012 0.0028,-0 0.0072,-0.01 0.01187,-0.01 0.0047,-0 0.0098,-0 0.01496,-0 0.0051,-0 0.01031,-0 0.01536,-0 0.0051,-0 0.01003,-0 0.01427,-0.01 0.0077,-0.01 0.01254,-0.015 0.01254,-0.024 0,-0.01 -0.0048,-0.019 -0.01254,-0.024 0.04201,-0 0.08329,-0.019 0.112923,-0.049 0.0089,-0.01 0.01672,-0.019 0.02559,-0.028 0.0089,-0.01 0.019,-0.017 0.03087,-0.021 0.01,-0 0.02074,-0 0.03101,-0.01 0.0051,-0 0.01018,-0 0.01467,-0.01 0.0045,-0 0.0084,-0.01 0.01078,-0.011 0.0019,-0 0.0027,-0.01 0.0029,-0.012 2.09e-4,-0 -2.13e-4,-0.01 -8.1e-4,-0.012 -0.0012,-0.01 -0.0031,-0.016 -0.0021,-0.025 7.41e-4,-0.01 0.0031,-0.012 0.0068,-0.017 0.0037,-0.01 0.0088,-0.01 0.01445,-0.011 0.0057,-0 0.01203,-0 0.01816,-0 0.0061,8e-4 0.01207,0 0.01701,0.01 l 0.05646,-0.024 0.112922,0 c 0.03238,-0.031 0.07099,-0.056 0.112923,-0.073 0.03594,-0.014 0.07429,-0.022 0.112922,-0.024 l 0.05646,-0.024 0.05647,0 0.05646,-0.049 0.05646,0 0,-0.049 0.05646,0 0,-0.049 c 0.07528,0 0.150563,0 0.225844,0 0.169384,0 0.338768,0 0.508152,0 0.01882,0 0.03764,0 0.05646,0 0.0096,0 0.01921,-0 0.02868,-0 0.0047,-9e-4 0.0095,-0 0.01433,-0 0.0048,2e-4 0.0098,0 0.01345,0 0.0035,0 0.0056,0.01 0.0056,0.012 0,0 -0.0021,0.01 -0.0056,0.012 l 0.05646,0 0.225845,0 c 0.01075,0 0.02171,4e-4 0.03178,0 0.01007,0 0.01896,0.011 0.02468,0.02 0.05601,-0.01 0.113378,-0.01 0.169385,0 0.03803,0.01 0.0753,0.016 0.112922,0.024 0.05579,0.012 0.112446,0.02 0.169384,0.024 l 0.05646,0.024 0.112922,0 0.05646,0.024 c 0.0023,-0.01 0.0063,-0.01 0.01131,-0.014 0.005,-0 0.01095,-0.01 0.01693,-0.01 0.006,0 0.01194,0 0.01693,0.01 0.005,0 0.009,0.01 0.01131,0.014 0.0032,0.01 0.0032,0.016 0,0.024 l 0.112922,0 0,0.024 c 0.0023,-0.01 0.0063,-0.01 0.01131,-0.014 0.005,-0 0.01095,-0.01 0.01692,-0.01 0.006,0 0.01194,0 0.01692,0.01 0.005,0 0.009,0.01 0.01131,0.014 0.0032,0.01 0.0032,0.016 0,0.024 0.0023,-0.01 0.0063,-0.01 0.01131,-0.014 0.005,-0 0.01095,-0.01 0.01692,-0.01 0.006,0 0.01194,0 0.01692,0.01 0.005,0 0.009,0.01 0.01131,0.014 0.0032,0.01 0.0032,0.016 0,0.024 0.0023,-0.01 0.0063,-0.01 0.01131,-0.014 0.005,-0 0.01095,-0.01 0.01692,-0.01 0.006,0 0.01194,0 0.01692,0.01 0.005,0 0.009,0.01 0.01131,0.014 0.0032,0.01 0.0032,0.016 0,0.024 l 0.05646,0 0,0.049 c 0.0011,-0.01 0.0046,-0.013 0.0097,-0.017 0.0051,-0 0.01179,-0.01 0.0185,-0.01 0.0067,0 0.01338,0 0.0185,0.01 0.0051,0 0.0086,0.01 0.0097,0.017 0.0013,0.01 -7.23e-4,0.016 0,0.024 5.64e-4,0.01 0.0028,0.012 0.0065,0.017 0.0037,0.01 0.0088,0.01 0.01452,0.012 0.0058,0 0.01219,0 0.01838,0 0.0062,-8e-4 0.01215,-0 0.01703,-0.01 l 0,0.024 0.05646,0 0,0.049 c 0.0014,-0.01 0.005,-0.012 0.01013,-0.016 0.0051,-0 0.01158,-0.01 0.0181,-0.01 0.0065,0 0.01302,0 0.0181,0.01 0.0051,0 0.0087,0.01 0.01013,0.016 0.0017,0.01 1.46e-4,0.016 0,0.024 -2.38e-4,0.013 0.0035,0.026 0.01057,0.037 0.0071,0.011 0.01749,0.02 0.02949,0.025 0.01201,0.01 0.02557,0.01 0.03845,0 0.01288,-0 0.02502,-0.01 0.03441,-0.018 l 0,0.024 c 0.0023,-0.01 0.0063,-0.01 0.01131,-0.014 0.005,-0 0.01095,-0.01 0.01692,-0.01 0.006,0 0.01194,0 0.01692,0.01 0.005,0 0.009,0.01 0.01131,0.014 0.0032,0.01 0.0032,0.016 0,0.024 0.0023,-0.01 0.0063,-0.01 0.01131,-0.014 0.005,-0 0.01095,-0.01 0.01692,-0.01 0.006,0 0.01194,0 0.01692,0.01 0.005,0 0.009,0.01 0.01131,0.014 0.0032,0.01 0.0032,0.016 0,0.024 0.0023,-0.01 0.0063,-0.01 0.01131,-0.014 0.005,-0 0.01095,-0.01 0.01692,-0.01 0.006,0 0.01194,0 0.01692,0.01 0.005,0 0.009,0.01 0.01131,0.014 0.0032,0.01 0.0032,0.016 0,0.024 l 0.05646,0.049 0.05646,0 c 0.01583,0.019 0.03502,0.036 0.05647,0.049 0.01757,0.011 0.03664,0.019 0.05646,0.024 0.01826,0.01 0.03713,0.017 0.05646,0.024 0.03644,0.013 0.07447,0.021 0.112923,0.024 0.03587,0.027 0.07363,0.051 0.112923,0.073 0.05394,0.03 0.110747,0.054 0.169383,0.073 -0.0026,0 -0.004,0.01 -0.004,0.012 0,0 0.0014,0.01 0.004,0.012 0.0032,0 0.0079,0.01 0.01291,0.01 0.005,0 0.01024,0 0.01545,0 0.0052,7e-4 0.01047,0 0.01542,0 0.005,0 0.0096,0 0.01269,0.01 0.0024,0 0.0037,0.01 0.0041,0.012 4.13e-4,0 8e-6,0.01 -6.84e-4,0.013 -0.0014,0.01 -0.0039,0.016 -0.0034,0.025 3.85e-4,0.01 0.0026,0.012 0.0062,0.018 0.0037,0.01 0.0088,0.01 0.01459,0.012 0.0058,0 0.01235,0 0.0186,0 0.0063,-10e-4 0.01223,-0 0.01705,-0.01 -0.0024,0.01 -0.0024,0.016 0,0.024 0.0035,0.011 0.01199,0.02 0.02269,0.025 0.0107,0 0.02339,0 0.03378,-0 -0.0013,0.01 -0.0013,0.016 0,0.024 0.0025,0.016 0.01003,0.03 0.02014,0.042 0.01012,0.012 0.02278,0.022 0.03631,0.031 0.0175,0.011 0.03659,0.019 0.05646,0.024 -0.0026,0 -0.004,0.01 -0.004,0.012 0,0 0.0014,0.01 0.004,0.012 0.0031,0 0.0078,0.01 0.01279,0.01 0.005,0 0.01019,0 0.01539,0 0.0052,7e-4 0.01044,0 0.0154,0 0.005,0 0.0097,0 0.01289,0.01 0.0026,0 0.004,0.01 0.0046,0.012 6.01e-4,0 3.63e-4,0.01 -2.46e-4,0.013 -0.0012,0.01 -0.0039,0.016 -0.0044,0.025 -8.05e-4,0.014 0.0054,0.029 0.01621,0.038 0.01085,0.01 0.02616,0.014 0.04025,0.011 0,0.01 0,0.016 0,0.024 0,0.016 0,0.033 0,0.049 0,0.032 0,0.065 0,0.097 0,0.01 0,0.016 0,0.024 0,0 -2.38e-4,0.01 -6.24e-4,0.012 -3.86e-4,0 -7.8e-4,0.01 6.24e-4,0.012 0.0012,0 0.0038,0.01 0.0067,0.01 0.003,0 0.0063,0 0.0097,0 0.0068,0 0.01391,0 0.02049,0 0.0033,0 0.0064,0 0.0091,0 0.0027,0 0.005,0.01 0.0066,0.01 0.0016,0 0.0027,0.01 0.0032,0.01 5.17e-4,0 5.42e-4,0.01 5.42e-4,0.01 l 0,0.1702 c 0,0.012 -0.0014,0.025 -0.0036,0.037 -0.0011,0.01 -0.0021,0.012 -0.002,0.019 1.68e-4,0.01 0.0017,0.013 0.0055,0.017 0.0032,0 0.0079,0.01 0.01285,0.01 0.0049,0 0.01014,0 0.01531,0 0.0052,8e-4 0.01039,0 0.01533,0 0.0049,0 0.0097,0 0.01296,0.01 0.0027,0 0.0043,0.01 0.0051,0.011 7.69e-4,0 6.91e-4,0.01 1.64e-4,0.013 -0.0011,0.01 -0.0039,0.016 -0.0052,0.025 -0.0013,0.01 -0.0013,0.016 0,0.024 0.0011,-0.01 0.0046,-0.013 0.0097,-0.017 0.0051,-0 0.01183,-0.01 0.01856,-0.01 0.0067,0 0.01344,0 0.01856,0.01 0.0051,0 0.0086,0.011 0.0097,0.017 6.29e-4,0 4.47e-4,0.01 2.76e-4,0.012 -1.71e-4,0 -2.76e-4,0.01 -2.76e-4,0.012 l 0,0.097 0,0.1215 0,0.024 0,0.024 -0.112922,0 0,0.024 -0.112923,0 -0.05646,0 -0.395229,0 -0.508151,0 -0.112923,0 c -0.09138,-0.029 -0.18659,-0.045 -0.282307,-0.049 -0.07523,-0 -0.150557,0 -0.225844,0 l -0.395229,0 c -0.03769,0 -0.07537,10e-4 -0.113024,0 -0.03765,0 -0.07565,0 -0.112821,-0 -0.05804,-0.01 -0.11134,-0.039 -0.169383,-0.049 -0.03717,-0.01 -0.07517,-0 -0.112821,-0 -0.03765,0 -0.07533,0 -0.113025,0 l -0.282306,0 c -0.02831,0 -0.05661,0 -0.08486,0 -0.02825,0 -0.05708,0 -0.08452,-0 -0.03987,-0.01 -0.07305,-0.039 -0.112924,-0.049 -0.02744,-0.01 -0.05627,-0 -0.08452,-0 -0.02825,0 -0.05655,0 -0.08486,0 l -0.112923,0 -0.508151,0 -0.169383,0 -0.05646,0 -0.05647,0 c -0.01149,-0.023 -0.03224,-0.041 -0.05646,-0.049 -0.02689,-0.01 -0.05613,-0.01 -0.0844,-0 -0.02826,0 -0.05661,0 -0.08498,0 l -0.05646,0 -0.282306,0 -0.169384,0 -0.282307,0.024 1.4e-5,0.01"
       id="path3953-4"
       inkscape:path-effect="#path-effect3955-2"
       inkscape:original-d="m 31.925608,1031.6446 c 0.03155,-0.082 0.08137,-0.1615 0.112923,-0.2431 0.0031,-0.01 -0.0037,-0.016 0,-0.024 0.01522,-0.033 0.0437,-0.064 0.05646,-0.097 0.0062,-0.016 -0.0074,-0.033 0,-0.049 0.01167,-0.025 0.04668,-0.048 0.05646,-0.073 0.0093,-0.024 0,-0.049 0,-0.073 0,-0.016 0,-0.033 0,-0.049 0,-0.081 0,-0.1621 0,-0.2432 0,-0.097 0,-0.1944 0,-0.2917 0,-0.027 -0.01014,-0.1284 0,-0.1458 0.0065,-0.011 0.04456,-0.014 0.05646,-0.024 0.0084,-0.01 -0.006,-0.016 0,-0.024 0.01331,-0.017 0.04625,-0.031 0.05646,-0.049 0.0091,-0.016 0,-0.032 0,-0.049 0,-0.01 -0.0084,-0.017 0,-0.024 0.0119,-0.01 0.04456,-0.014 0.05647,-0.024 0.0084,-0.01 0,-0.016 0,-0.024 0.01882,-0.01 0.04456,-0.014 0.05646,-0.024 0.0084,-0.01 -0.0084,-0.017 0,-0.024 0.0119,-0.01 0.04805,-0.013 0.05646,-0.024 0.01191,-0.015 -0.0119,-0.033 0,-0.049 0.0023,0 0.104176,-0.043 0.112923,-0.049 0.02334,-0.015 0.03312,-0.034 0.05646,-0.049 0.01476,-0.01 0.04805,-0.013 0.05646,-0.024 0.01191,-0.015 -0.0119,-0.034 0,-0.049 0.0084,-0.011 0.03764,-0.016 0.05646,-0.024 0.01882,-0.01 0.03121,-0.021 0.05646,-0.024 0.03571,0 0.0816,0.01 0.112922,0 0.03429,-0.03 0.04826,-0.054 0.112923,-0.073 0.03501,-0.01 0.07791,-0.014 0.112922,-0.024 0.02215,-0.01 0.03265,-0.019 0.05646,-0.024 0.01684,0 0.04316,0.01 0.05647,0 0.02976,-0.013 0.0267,-0.036 0.05646,-0.049 0.01331,-0.01 0.04805,0.01 0.05646,0 0.01684,-0.014 0,-0.032 0,-0.049 0.01882,0 0.04805,0.01 0.05646,0 0.01684,-0.014 -0.01684,-0.034 0,-0.049 0.0028,0 0.163994,0 0.225844,0 0.169384,0 0.338768,0 0.508152,0 0.01882,0 0.03764,0 0.05646,0 0.01882,0 0.04315,-0.01 0.05646,0 0.01331,0.01 -0.01331,0.019 0,0.024 0.01331,0.01 0.03764,0 0.05646,0 0.0478,0 0.195491,0 0.225845,0 0.02525,0 0.03121,0.021 0.05646,0.024 0.05081,0.01 0.118569,-0.01 0.169385,0 0.03993,0.01 0.073,0.019 0.112922,0.024 0.168076,0.024 -0.115847,-0.057 0.169384,0.024 0.02215,0.01 0.03265,0.019 0.05646,0.024 0.03367,0.01 0.07925,-0.01 0.112922,0 0.02381,0 0.03265,0.019 0.05646,0.024 0.01684,0 0.04316,-0.01 0.05647,0 0.01331,0.01 -0.01331,0.019 0,0.024 0.02662,0.012 0.08631,-0.012 0.112922,0 0.01331,0.01 -0.01331,0.019 0,0.024 0.01331,0.01 0.04316,-0.01 0.05646,0 0.01331,0.01 -0.01331,0.019 0,0.024 0.01331,0.01 0.04316,-0.01 0.05646,0 0.01331,0.01 -0.01331,0.019 0,0.024 0.01331,0.01 0.04316,-0.01 0.05646,0 0.01331,0.01 -0.01331,0.019 0,0.024 0.01331,0.01 0.04315,-0.01 0.05646,0 0.02662,0.012 -0.02662,0.037 0,0.049 0.01331,0.01 0.04316,-0.01 0.05646,0 0.01331,0.01 -0.0084,0.017 0,0.024 0.0119,0.01 0.04456,0.014 0.05646,0.024 0.0084,0.01 -0.01331,0.019 0,0.024 0.01331,0.01 0.04316,-0.01 0.05646,0 0.02662,0.012 -0.02662,0.037 0,0.049 0.01331,0.01 0.04316,-0.01 0.05646,0 0.01331,0.01 -0.0084,0.017 0,0.024 0.02381,0.02 0.08912,0.028 0.112923,0.049 0.0084,0.01 -0.01331,0.019 0,0.024 0.01331,0.01 0.04315,-0.01 0.05646,0 0.01331,0.01 -0.01331,0.019 0,0.024 0.01331,0.01 0.04316,-0.01 0.05646,0 0.01331,0.01 -0.01331,0.019 0,0.024 0.01331,0.01 0.04316,-0.01 0.05646,0 0.01331,0.01 0,0.016 0,0.024 0.01882,0.016 0.0267,0.036 0.05646,0.049 0.01331,0.01 0.04316,-0.01 0.05646,0 0.02976,0.013 0.03312,0.034 0.05647,0.049 0.01476,0.01 0.03764,0.016 0.05646,0.024 0.01882,0.01 0.03431,0.018 0.05646,0.024 0.03502,0.01 0.08317,0.012 0.112923,0.024 0.06837,0.059 0.0267,0.036 0.112923,0.073 0.02396,0.01 0.159008,0.064 0.169383,0.073 0.0084,0.01 -0.0084,0.017 0,0.024 0.01191,0.01 0.04805,0.014 0.05646,0.024 0.01191,0.015 -0.0119,0.033 0,0.049 0.0084,0.011 0.04456,0.014 0.05646,0.024 0.0084,0.01 -0.0084,0.017 0,0.024 0.0119,0.01 0.04456,0.014 0.05647,0.024 0.0084,0.01 -0.0046,0.017 0,0.024 0.01443,0.025 0.02985,0.05 0.05646,0.073 0.0119,0.01 0.04456,0.014 0.05646,0.024 0.0084,0.01 -0.0084,0.017 0,0.024 0.0119,0.01 0.04805,0.013 0.05646,0.024 0.0119,0.015 -0.0091,0.033 0,0.049 0.01021,0.018 0.04316,0.031 0.05646,0.049 0.006,0.01 0,0.016 0,0.024 0,0.016 0,0.033 0,0.049 0,0.033 0,0.065 0,0.097 0,0.01 0,0.016 0,0.024 0,0.01 -0.0084,0.017 0,0.024 0.06977,0.06 0.05646,-0.01 0.05646,0.049 0,0.057 0,0.1135 0,0.1702 0,0.011 -0.0086,0.066 0,0.073 0.0119,0.01 0.04805,0.013 0.05646,0.024 0.01191,0.015 0,0.033 0,0.049 0,0.01 -0.01331,0.018 0,0.024 0.01331,0.01 0.04316,-0.01 0.05646,0 0.01331,0.01 0,0.016 0,0.024 0,0.033 0,0.065 0,0.097 0,0.04 0,0.081 0,0.1215 0,0.01 0,0.016 0,0.024 0,0.01 0.01684,0.021 0,0.024 -0.03367,0.01 -0.07925,-0.01 -0.112922,0 -0.01684,0 0.01684,0.021 0,0.024 -0.03367,0.01 -0.07528,0 -0.112923,0 -0.01882,0 -0.03764,0 -0.05646,0 -0.131743,0 -0.263486,0 -0.395229,0 -0.169384,0 -0.338768,0 -0.508151,0 -0.03764,0 -0.07673,0 -0.112923,0 -0.09745,-0.012 -0.183369,-0.039 -0.282307,-0.049 -0.07349,-0.01 -0.150563,0 -0.225844,0 -0.131743,0 -0.263486,0 -0.395229,0 -0.07528,0 -0.153459,0.01 -0.225845,0 -0.06525,-0.01 -0.104137,-0.041 -0.169383,-0.049 -0.07238,-0.01 -0.150564,0 -0.225846,0 -0.08762,0 -0.197914,0 -0.282306,0 -0.05646,0 -0.116961,0.01 -0.169383,0 -0.04942,-0.01 -0.0635,-0.04 -0.112924,-0.049 -0.05242,-0.01 -0.112921,0 -0.169383,0 -0.03764,0 -0.07528,0 -0.112923,0 -0.169383,0 -0.338767,0 -0.508151,0 -0.05646,0 -0.112922,0 -0.169383,0 -0.01882,0 -0.03764,0 -0.05646,0 -0.01882,0 -0.04316,0.01 -0.05647,0 -0.02976,-0.013 -0.01882,-0.04 -0.05646,-0.049 -0.0505,-0.011 -0.112922,0 -0.169383,0 -0.01882,0 -0.03764,0 -0.05646,0 -0.0941,0 -0.188204,0 -0.282306,0 -0.05646,0 -0.113491,0 -0.169384,0 -0.095,0.01 -0.188204,0.016 -0.282307,0.024 z"
       inkscape:connector-curvature="0" />
    <path
       style="fill:url(#linearGradient4059);fill-opacity:1;stroke:#616026;stroke-width:0.35916436px;stroke-linecap:butt;stroke-linejoin:miter;stroke-opacity:1"
       d="m 4.711128,1042.9775 0.1815369,-0.3677 c -0.0027,-0.012 -0.0027,-0.024 0,-0.036 0.00325,-0.014 0.010326,-0.027 0.01887,-0.039 0.00854,-0.012 0.018571,-0.023 0.028436,-0.033 0.00987,-0.011 0.01964,-0.022 0.027586,-0.034 0.00795,-0.012 0.014047,-0.026 0.015875,-0.04 0.00155,-0.012 -1.1e-6,-0.025 -0.00117,-0.037 -0.00116,-0.012 -0.00192,-0.025 0.00117,-0.037 0.00301,-0.012 0.00959,-0.022 0.017546,-0.031 0.00796,-0.01 0.017298,-0.017 0.02667,-0.025 0.00937,-0.01 0.018852,-0.015 0.02716,-0.024 0.00831,-0.01 0.015467,-0.019 0.01939,-0.03 0.006,-0.017 0.0043,-0.037 0.00266,-0.055 -0.00164,-0.018 -0.00266,-0.037 -0.00266,-0.055 0,-0.025 0,-0.049 0,-0.074 0,-0.1227 0,-0.2453 0,-0.368 0,-0.1471 0,-0.2941 0,-0.4412 0,-0.037 -0.00327,-0.074 -0.00854,-0.1113 -0.00263,-0.018 -0.00517,-0.037 -0.00478,-0.056 3.815e-4,-0.019 0.0039,-0.038 0.013324,-0.054 0.00887,-0.015 0.022896,-0.027 0.03919,-0.034 0.016295,-0.01 0.034754,-0.01 0.051576,0 -0.005,-0.011 -0.005,-0.025 0,-0.036 0.00403,-0.01 0.011029,-0.017 0.018969,-0.023 0.00794,-0.01 0.016839,-0.011 0.025724,-0.015 0.00889,0 0.017847,-0.01 0.025981,-0.015 0.00813,-0.01 0.015475,-0.013 0.020093,-0.022 0.00584,-0.011 0.00695,-0.024 0.00595,-0.037 -0.00101,-0.013 -0.004,-0.025 -0.00595,-0.037 -0.00187,-0.012 -0.00275,-0.024 0,-0.036 0.00436,-0.019 0.018234,-0.035 0.035984,-0.042 0.01775,-0.01 0.038885,0 0.054798,0.01 l 0,-0.037 0.090766,-0.036 c -0.00339,-0.01 -0.00523,-0.012 -0.00523,-0.018 0,-0.01 0.00184,-0.013 0.00523,-0.018 0.00447,-0.01 0.011472,-0.012 0.019081,-0.016 0.00761,0 0.015848,-0.01 0.024079,-0.01 0.00823,0 0.016539,0 0.024664,0 0.00813,0 0.016141,0 0.022941,-0.01 0.011753,-0.01 0.019096,-0.023 0.019096,-0.037 0,-0.014 -0.00734,-0.029 -0.019096,-0.037 0.066896,-8e-4 0.1331239,-0.028 0.1815369,-0.074 0.014279,-0.014 0.027021,-0.029 0.041347,-0.042 0.014326,-0.014 0.030603,-0.026 0.049419,-0.032 0.016117,-0.01 0.033335,-0.01 0.049838,-0.01 0.00825,0 0.016389,0 0.023627,-0.01 0.00724,0 0.013563,-0.01 0.017301,-0.018 0.00276,-0.01 0.00405,-0.012 0.00438,-0.018 3.252e-4,-0.01 -2.858e-4,-0.013 -0.00116,-0.019 -0.00176,-0.012 -0.0046,-0.025 -0.00321,-0.037 0.00111,-0.01 0.00495,-0.019 0.011006,-0.027 0.00605,-0.01 0.014291,-0.014 0.023561,-0.018 0.00927,0 0.019545,0 0.029385,0 0.00984,0 0.019216,0.01 0.026814,0.012 l 0.090766,-0.036 0.1815353,0 c 0.052901,-0.048 0.1148349,-0.085 0.1815368,-0.1104 0.058017,-0.022 0.1196039,-0.034 0.1815353,-0.036 l 0.090766,-0.036 0.090782,0 0.090766,-0.074 0.090766,0 0,-0.074 0.090766,0 0,-0.074 c 0.1210235,0 0.242047,0 0.3630705,0 0.2723043,0 0.5446086,0 0.8169129,0 0.030255,0 0.060511,0 0.090766,0 0.015513,0 0.03095,0 0.046176,0 0.00761,0 0.015312,0 0.023065,0 0.00775,2e-4 0.015739,0 0.021525,0.01 0.00505,0 0.00806,0.011 0.00806,0.018 0,0.01 -0.00301,0.014 -0.00806,0.018 l 0.090766,0 0.3630722,0 c 0.017003,0 0.03431,6e-4 0.050365,0.01 0.016055,0.01 0.030478,0.016 0.040401,0.03 0.09013,-0.013 0.1821765,-0.013 0.2723061,0 0.061051,0.01 0.1210456,0.024 0.1815353,0.036 0.089828,0.018 0.180868,0.03 0.2723045,0.036 l 0.090766,0.036 0.1815353,0 0.090765,0.036 c 0.0036,-0.01 0.0099,-0.017 0.01796,-0.022 0.008,-0.01 0.01772,-0.01 0.02744,-0.01 0.0097,0 0.0194,0 0.02743,0.01 0.008,0.01 0.01438,0.013 0.01796,0.022 0.0045,0.011 0.0045,0.025 0,0.036 l 0.181535,0 0,0.036 c 0.0036,-0.01 0.0099,-0.017 0.01795,-0.022 0.008,-0.01 0.01772,-0.01 0.02743,-0.01 0.0097,0 0.0194,0 0.02743,0.01 0.008,0.01 0.01437,0.013 0.01795,0.022 0.0045,0.011 0.0045,0.025 0,0.036 0.0036,-0.01 0.0099,-0.017 0.01795,-0.022 0.008,-0.01 0.01772,-0.01 0.02743,-0.01 0.0097,0 0.0194,0 0.02743,0.01 0.008,0.01 0.01437,0.013 0.01795,0.022 0.0045,0.011 0.0045,0.025 0,0.036 0.0037,-0.01 0.01002,-0.017 0.01804,-0.022 0.008,-0.01 0.01767,-0.01 0.02734,-0.01 0.0097,0 0.01932,0 0.02734,0.01 0.008,0.01 0.01439,0.013 0.01804,0.022 0.0048,0.012 0.0048,0.025 0,0.037 l 0.09077,0 0,0.074 c 0.0016,-0.011 0.0072,-0.021 0.01548,-0.028 0.0082,-0.01 0.01905,-0.011 0.02991,-0.011 0.01086,0 0.02167,0 0.02991,0.011 0.0082,0.01 0.01383,0.017 0.01548,0.028 0.0018,0.012 -0.0011,0.024 0,0.036 8.94e-4,0.01 0.0046,0.02 0.01064,0.028 0.006,0.01 0.01431,0.014 0.02366,0.018 0.0094,0 0.01974,0 0.02965,0 0.0099,0 0.01931,-0.01 0.02683,-0.013 l 0,0.036 0.09077,0 0,0.074 c 0.0021,-0.01 0.0079,-0.02 0.0161,-0.027 0.0082,-0.01 0.01872,-0.01 0.02928,-0.01 0.01056,0 0.02109,0 0.02928,0.01 0.0082,0.01 0.01398,0.016 0.0161,0.027 0.0024,0.012 1.85e-4,0.024 0,0.036 -3.24e-4,0.021 0.0058,0.042 0.01743,0.06 0.0116,0.018 0.02858,0.032 0.04805,0.039 0.01947,0.01 0.04135,0.01 0.0619,0.01 0.02055,0 0.03969,-0.015 0.05416,-0.031 l 0,0.036 c 0.0036,-0.01 0.0099,-0.017 0.01795,-0.022 0.008,-0.01 0.01772,-0.01 0.02743,-0.01 0.0097,0 0.0194,0 0.02743,0.01 0.008,0.01 0.01437,0.013 0.01795,0.022 0.0045,0.011 0.0045,0.025 0,0.036 0.0036,-0.01 0.0099,-0.017 0.01795,-0.022 0.008,-0.01 0.01772,-0.01 0.02743,-0.01 0.0097,0 0.0194,0 0.02743,0.01 0.008,0.01 0.01437,0.013 0.01795,0.022 0.0045,0.011 0.0045,0.025 0,0.036 0.0036,-0.01 0.0099,-0.017 0.01795,-0.022 0.008,-0.01 0.01772,-0.01 0.02743,-0.01 0.0097,0 0.0194,0 0.02743,0.01 0.008,0.01 0.01437,0.013 0.01795,0.022 0.0045,0.011 0.0045,0.025 0,0.036 l 0.09077,0.074 0.09077,0 c 0.02585,0.029 0.05668,0.055 0.09078,0.074 0.02839,0.016 0.05904,0.028 0.09077,0.036 0.02946,0.014 0.0598,0.026 0.09077,0.036 0.0588,0.019 0.119882,0.031 0.181537,0.036 0.05792,0.041 0.11862,0.078 0.181537,0.1105 0.08705,0.045 0.17835,0.082 0.272303,0.1104 -0.0038,0.01 -0.006,0.012 -0.006,0.018 0,0.01 0.0021,0.013 0.006,0.018 0.005,0.01 0.0127,0.011 0.02072,0.014 0.008,0 0.01645,0 0.02481,0 0.0084,8e-4 0.01679,0 0.02478,0 0.008,0 0.0156,0.01 0.02046,0.014 0.0037,0.01 0.0056,0.011 0.0062,0.018 6.51e-4,0.01 7e-5,0.013 -9.57e-4,0.019 -0.0021,0.012 -0.0059,0.025 -0.0053,0.037 4.91e-4,0.01 0.004,0.02 0.0099,0.029 0.006,0.01 0.01434,0.015 0.02385,0.019 0.0095,0 0.02011,0 0.03015,0 0.01004,0 0.01947,-0.01 0.02684,-0.014 -0.0035,0.012 -0.0035,0.024 0,0.036 0.0054,0.018 0.01931,0.033 0.03669,0.04 0.01739,0.01 0.03788,0.01 0.05409,0 l 0,0.036 c 0.01823,0.045 0.05033,0.084 0.09077,0.1105 0.02739,0.018 0.05848,0.03 0.09077,0.036 -0.0038,0.01 -0.0059,0.012 -0.0059,0.018 0,0.01 0.0021,0.013 0.0059,0.018 0.005,0.01 0.01257,0.011 0.02054,0.014 0.008,0 0.01638,0 0.02472,0 0.0083,9e-4 0.01675,0 0.02475,0 0.008,0 0.01566,0.01 0.02075,0.014 0.0039,0 0.0061,0.011 0.007,0.017 9.1e-4,0.01 5.58e-4,0.013 -3.57e-4,0.019 -0.0018,0.013 -0.0059,0.025 -0.0066,0.037 -0.0013,0.023 0.0088,0.046 0.02647,0.06 0.01764,0.014 0.04232,0.02 0.0643,0.014 0,0.012 0,0.024 0,0.036 0,0.025 0,0.049 0,0.074 0,0.049 0,0.098 0,0.1468 0,0.012 0,0.024 0,0.036 0,0.01 -3.55e-4,0.012 -9.31e-4,0.018 -5.75e-4,0.01 -0.0012,0.012 9.31e-4,0.018 0.0019,0.01 0.006,0.01 0.01079,0.012 0.0048,0 0.01018,0 0.01562,0.01 0.01087,0 0.02211,0 0.03267,0.01 0.0053,0 0.01034,0 0.01475,0.01 0.0044,0 0.0081,0.01 0.01083,0.012 0.0027,0 0.0044,0.01 0.0052,0.016 8.51e-4,0.01 8.92e-4,0.011 8.92e-4,0.016 l 0,0.2575 c 0,0.019 -0.0021,0.038 -0.0054,0.056 -0.0016,0.01 -0.0032,0.019 -0.003,0.028 2.53e-4,0.01 0.0025,0.019 0.0083,0.026 0.0052,0.01 0.01274,0.011 0.02069,0.014 0.0079,0 0.01631,0 0.02461,0 0.0083,10e-4 0.01667,0 0.02463,0 0.008,0 0.01559,0.01 0.02084,0.013 0.004,0 0.0065,0.011 0.0076,0.017 0.0012,0.01 10e-4,0.013 2.44e-4,0.019 -0.0016,0.013 -0.0058,0.025 -0.0079,0.037 -0.0019,0.012 -0.0019,0.024 0,0.036 0.0016,-0.011 0.0072,-0.021 0.01542,-0.028 0.0082,-0.01 0.01908,-0.011 0.02997,-0.011 0.01088,0 0.02172,0 0.02997,0.011 0.0082,0.01 0.01382,0.017 0.01542,0.028 8.82e-4,0.01 6.26e-4,0.012 3.87e-4,0.018 -2.4e-4,0.01 -3.87e-4,0.012 -3.87e-4,0.018 l 0,0.1468 0,0.1838 0,0.036 0,0.036 -0.181535,0 0,0.036 -0.181537,0 -0.09077,0 -0.635377,0 -0.816912,0 -0.181536,0 c -0.147417,-0.043 -0.300269,-0.068 -0.453842,-0.074 -0.120949,0 -0.242039,0 -0.36307,0 l -0.635377,0 c -0.060583,0 -0.1211531,0 -0.181682,0 -0.060529,0 -0.1215512,0.01 -0.1813901,0 -0.093013,-0.015 -0.1792902,-0.059 -0.2723029,-0.074 -0.059839,-0.01 -0.1208617,-0.01 -0.1813909,0 -0.060529,0 -0.121099,0 -0.1816828,0 l -0.4538398,0 c -0.045505,0 -0.090987,0 -0.1363993,0 -0.045413,0 -0.091661,0.01 -0.1359036,0 -0.063679,-0.015 -0.1178595,-0.059 -0.1815385,-0.074 -0.044243,-0.011 -0.090491,-0.01 -0.1359033,0 -0.045412,0 -0.090894,0 -0.1363989,0 l -0.1815369,0 -0.8169119,0 -0.2723029,0 -0.090766,0 -0.090782,0 c -0.019794,-0.035 -0.052808,-0.062 -0.090766,-0.074 -0.043346,-0.014 -0.090272,-0.01 -0.1357078,-0.01 -0.045436,0 -0.090994,0.01 -0.1365951,0.01 l -0.090766,0 -0.4538397,0 -0.2723045,0 -0.4538414,0.036 -6.17e-5,0.023"
       id="path3953-4-9"
       inkscape:path-effect="#path-effect3955-2-2"
       inkscape:original-d="m 4.711128,1042.9775 c 0.05072,-0.124 0.1308118,-0.2442 0.1815369,-0.3677 0.00498,-0.015 -0.00595,-0.024 0,-0.036 0.024468,-0.049 0.070253,-0.097 0.090766,-0.1467 0.00997,-0.024 -0.011896,-0.05 0,-0.074 0.018761,-0.037 0.075043,-0.073 0.090766,-0.1104 0.014951,-0.036 0,-0.074 0,-0.1104 0,-0.024 0,-0.05 0,-0.074 0,-0.1226 0,-0.2453 0,-0.368 0,-0.1466 0,-0.294 0,-0.4412 0,-0.041 -0.016301,-0.1942 0,-0.2206 0.01045,-0.017 0.071635,-0.021 0.090766,-0.036 0.013504,-0.015 -0.00965,-0.024 0,-0.036 0.021397,-0.026 0.074352,-0.047 0.090766,-0.074 0.014629,-0.024 0,-0.049 0,-0.074 0,-0.015 -0.013504,-0.026 0,-0.036 0.019131,-0.015 0.071635,-0.022 0.090782,-0.036 0.013504,-0.015 0,-0.024 0,-0.037 0.030255,-0.015 0.071635,-0.021 0.090766,-0.036 0.013504,-0.015 -0.013504,-0.026 0,-0.036 0.019131,-0.015 0.077246,-0.02 0.090766,-0.036 0.019147,-0.022 -0.019131,-0.05 0,-0.074 0.0037,0 0.1674751,-0.065 0.1815369,-0.074 0.037522,-0.022 0.053244,-0.051 0.090766,-0.074 0.023728,-0.015 0.077246,-0.02 0.090766,-0.036 0.019147,-0.022 -0.019131,-0.051 0,-0.074 0.013504,-0.017 0.060511,-0.024 0.090766,-0.036 0.030255,-0.015 0.050174,-0.032 0.090766,-0.036 0.057408,0 0.1311815,0.015 0.1815353,0 0.055125,-0.046 0.077584,-0.082 0.1815368,-0.1104 0.056283,-0.015 0.1252494,-0.021 0.1815353,-0.036 0.035609,-0.015 0.052489,-0.029 0.090766,-0.036 0.027072,0 0.069385,0.015 0.090782,0 0.047843,-0.02 0.042923,-0.054 0.090766,-0.074 0.021397,-0.015 0.077246,0.015 0.090766,0 0.027072,-0.022 0,-0.049 0,-0.074 0.030255,0 0.077246,0.015 0.090766,0 0.027072,-0.021 -0.027072,-0.051 0,-0.074 0.0045,0 0.2636394,0 0.3630705,0 0.2723045,0 0.5446084,0 0.8169129,0 0.030255,0 0.060511,0 0.090766,0 0.030255,0 0.069369,-0.015 0.090766,0 0.021397,0.015 -0.021397,0.029 0,0.036 0.021397,0.015 0.060511,0 0.090766,0 0.076844,0 0.3142746,0 0.3630722,0 0.040592,0 0.050174,0.032 0.090766,0.036 0.081683,0.015 0.1906135,-0.015 0.2723061,0 0.064192,0.015 0.117356,0.029 0.1815353,0.036 0.2702017,0.036 -0.1862376,-0.086 0.2723045,0.036 0.035609,0.015 0.052489,0.029 0.090766,0.036 0.054128,0.015 0.1274036,-0.015 0.1815353,0 0.038277,0 0.052488,0.029 0.090765,0.036 0.02707,0 0.06938,-0.015 0.09078,0 0.0214,0.015 -0.0214,0.029 0,0.036 0.04279,0.018 0.138753,-0.018 0.181535,0 0.0214,0.015 -0.0214,0.029 0,0.036 0.0214,0.015 0.06938,-0.015 0.09077,0 0.0214,0.015 -0.0214,0.029 0,0.036 0.0214,0.015 0.06939,-0.015 0.09077,0 0.0214,0.015 -0.0214,0.029 0,0.036 0.0214,0.015 0.06939,-0.015 0.09077,0 0.0214,0.015 -0.0214,0.029 0,0.037 0.0214,0.015 0.06937,-0.015 0.09077,0 0.04279,0.018 -0.04279,0.056 0,0.074 0.0214,0.015 0.06939,-0.015 0.09077,0 0.0214,0.015 -0.0135,0.026 0,0.036 0.01913,0.015 0.07163,0.021 0.09077,0.036 0.0135,0.015 -0.0214,0.029 0,0.036 0.0214,0.015 0.06939,-0.015 0.09077,0 0.04279,0.018 -0.04279,0.056 0,0.074 0.0214,0.015 0.06939,-0.015 0.09077,0 0.0214,0.015 -0.0135,0.026 0,0.036 0.03828,0.03 0.143271,0.042 0.181537,0.074 0.0135,0.015 -0.0214,0.029 0,0.036 0.0214,0.015 0.06937,-0.015 0.09077,0 0.0214,0.015 -0.0214,0.029 0,0.036 0.0214,0.015 0.06938,-0.015 0.09077,0 0.0214,0.015 -0.0214,0.029 0,0.036 0.0214,0.015 0.06939,-0.015 0.09077,0 0.0214,0.015 0,0.024 0,0.036 0.03026,0.024 0.04292,0.054 0.09077,0.074 0.0214,0.015 0.06939,-0.015 0.09077,0 0.04784,0.02 0.05324,0.051 0.09078,0.074 0.02373,0.015 0.06051,0.024 0.09077,0.036 0.03026,0.015 0.05516,0.027 0.09077,0.036 0.0563,0.015 0.133706,0.018 0.181537,0.036 0.109913,0.089 0.04292,0.054 0.181537,0.1105 0.03852,0.015 0.255624,0.097 0.272303,0.1104 0.0135,0.015 -0.0135,0.025 0,0.036 0.01915,0.015 0.07725,0.022 0.09077,0.036 0.01915,0.022 -0.01913,0.05 0,0.074 0.0135,0.017 0.07163,0.021 0.09077,0.036 0.0135,0.015 -0.0135,0.026 0,0.036 0.01913,0.015 0.07164,0.021 0.09078,0.036 0.0135,0.015 -0.0074,0.026 0,0.036 0.0232,0.038 0.04799,0.076 0.09077,0.1105 0.01913,0.015 0.07164,0.021 0.09077,0.036 0.0135,0.015 -0.0135,0.026 0,0.036 0.01913,0.015 0.07725,0.02 0.09077,0.036 0.01913,0.022 -0.01463,0.05 0,0.074 0.01641,0.027 0.06939,0.047 0.09077,0.074 0.0096,0.015 0,0.024 0,0.036 0,0.024 0,0.05 0,0.074 0,0.05 0,0.098 0,0.1468 0,0.015 0,0.024 0,0.036 0,0.015 -0.0135,0.025 0,0.036 0.112163,0.091 0.09077,-0.015 0.09077,0.074 0,0.086 0,0.1717 0,0.2575 0,0.017 -0.01383,0.1 0,0.1104 0.01913,0.015 0.07725,0.02 0.09077,0.036 0.01915,0.022 0,0.05 0,0.074 0,0.015 -0.0214,0.027 0,0.036 0.0214,0.015 0.06939,-0.015 0.09077,0 0.0214,0.015 0,0.024 0,0.036 0,0.05 0,0.098 0,0.1468 0,0.061 0,0.1225 0,0.1838 0,0.015 0,0.024 0,0.036 0,0.015 0.02707,0.032 0,0.036 -0.05413,0.015 -0.127403,-0.015 -0.181535,0 -0.02707,0 0.02707,0.032 0,0.036 -0.05413,0.015 -0.121022,0 -0.181537,0 -0.03026,0 -0.06051,0 -0.09077,0 -0.211792,0 -0.423584,0 -0.635377,0 -0.272304,0 -0.544609,0 -0.816912,0 -0.06051,0 -0.123352,0 -0.181536,0 -0.156663,-0.018 -0.294787,-0.059 -0.453842,-0.074 -0.118144,-0.015 -0.242047,0 -0.36307,0 -0.211793,0 -0.423585,0 -0.635377,0 -0.1210213,0 -0.2467032,0.015 -0.3630721,0 -0.104897,-0.015 -0.1674124,-0.062 -0.2723029,-0.074 -0.1163593,-0.015 -0.2420492,0 -0.3630737,0 -0.1408594,0 -0.3181698,0 -0.4538398,0 -0.090766,0 -0.1880284,0.015 -0.2723029,0 -0.079448,-0.015 -0.1020836,-0.061 -0.1815385,-0.074 -0.084271,-0.015 -0.1815336,0 -0.2723022,0 -0.060511,0 -0.1210214,0 -0.1815369,0 -0.2723029,0 -0.5446074,0 -0.8169119,0 -0.090766,0 -0.1815353,0 -0.2723029,0 -0.030255,0 -0.060511,0 -0.090766,0 -0.030255,0 -0.069385,0.015 -0.090782,0 -0.047843,-0.02 -0.030255,-0.061 -0.090766,-0.074 -0.081185,-0.017 -0.1815353,0 -0.2723029,0 -0.030255,0 -0.060511,0 -0.090766,0 -0.1512767,0 -0.3025598,0 -0.4538397,0 -0.090766,0 -0.18245,0 -0.2723045,0 -0.1527236,0.015 -0.3025599,0.024 -0.4538414,0.036 z"
       inkscape:connector-curvature="0" />
    <path
       style="fill:url(#linearGradient4096);fill-opacity:1;stroke:#616026;stroke-width:0.47281462px;stroke-linecap:butt;stroke-linejoin:miter;stroke-opacity:1"
       d="m 8.3625997,1049.9843 0.2189923,-0.5282 c -0.00349,-0.017 -0.00349,-0.035 0,-0.052 0.008,-0.039 0.033349,-0.072 0.057257,-0.1043 0.011954,-0.016 0.023763,-0.032 0.03329,-0.05 0.00953,-0.018 0.016755,-0.037 0.018947,-0.057 0.00195,-0.018 -1.077e-4,-0.035 -0.00162,-0.053 -0.00151,-0.018 -0.00246,-0.036 0.00162,-0.053 0.00373,-0.016 0.011571,-0.03 0.02113,-0.044 0.00956,-0.013 0.020841,-0.025 0.032183,-0.036 0.022685,-0.023 0.046567,-0.048 0.05618,-0.079 0.00785,-0.025 0.00562,-0.053 0.00347,-0.079 -0.00215,-0.026 -0.00347,-0.053 -0.00347,-0.08 0,-0.035 0,-0.071 0,-0.1063 0,-0.1762 0,-0.3524 0,-0.5286 0,-0.2113 0,-0.4226 0,-0.6339 0,-0.054 -0.00485,-0.107 -0.01266,-0.16 -0.0039,-0.026 -0.00766,-0.053 -0.00709,-0.08 5.693e-4,-0.027 0.0058,-0.054 0.019746,-0.077 0.011128,-0.018 0.027674,-0.033 0.046988,-0.042 0.019314,-0.01 0.041324,-0.013 0.062506,-0.01 -0.00686,-0.016 -0.00686,-0.036 0,-0.052 0.00497,-0.012 0.013295,-0.022 0.022815,-0.031 0.00952,-0.01 0.020261,-0.016 0.031013,-0.023 0.010752,-0.01 0.021594,-0.014 0.031385,-0.023 0.00979,-0.01 0.018564,-0.018 0.024281,-0.03 0.008,-0.016 0.00958,-0.035 0.00825,-0.053 -0.00134,-0.018 -0.00543,-0.036 -0.00825,-0.053 -0.00273,-0.017 -0.00424,-0.035 0,-0.052 0.00561,-0.022 0.02163,-0.042 0.042483,-0.052 0.020853,-0.01 0.046132,-0.01 0.06703,-2e-4 l 0,-0.053 0.1094932,-0.052 c -0.00499,-0.01 -0.0077,-0.017 -0.0077,-0.026 0,-0.01 0.00271,-0.018 0.0077,-0.026 0.0056,-0.01 0.013912,-0.015 0.023007,-0.02 0.00909,-0 0.018996,-0.01 0.028949,-0.011 0.019906,-0.01 0.040979,-0.01 0.057537,-0.021 0.01655,-0.012 0.026802,-0.033 0.026802,-0.053 0,-0.021 -0.010253,-0.041 -0.026802,-0.053 0.083012,-0.01 0.1633321,-0.044 0.2189924,-0.1063 0.017196,-0.019 0.032062,-0.04 0.04909,-0.059 0.017028,-0.019 0.03669,-0.037 0.060404,-0.047 0.019197,-0.01 0.040185,-0.011 0.060087,-0.017 0.00995,-0 0.019705,-0.01 0.028385,-0.013 0.00868,-0.01 0.016276,-0.013 0.021021,-0.023 0.0041,-0.01 0.00597,-0.017 0.00639,-0.026 4.23e-4,-0.01 -5.575e-4,-0.018 -0.00191,-0.027 -0.00271,-0.018 -0.00692,-0.036 -0.00448,-0.053 0.00326,-0.024 0.019078,-0.045 0.040695,-0.056 0.021617,-0.01 0.048366,-0.01 0.068798,0 l 0.1094932,-0.052 0.21899,0 c 0.0605,-0.068 0.135754,-0.1223 0.218993,-0.1586 0.06912,-0.03 0.143675,-0.048 0.21899,-0.052 l 0.109493,-0.052 0.109513,0 0.109493,-0.1063 0.109493,0 0,-0.1063 0.109493,0 0,-0.1063 c 0.145994,0 0.291987,0 0.437981,0 0.328487,0 0.656975,0 0.985462,0 0.0365,0 0.073,0 0.109498,0 0.01862,0 0.03716,-0 0.0555,-0.01 0.0092,-0 0.01842,-0 0.02773,-0 0.0093,2e-4 0.01884,0 0.02627,0.01 0.008,0.01 0.01295,0.016 0.01295,0.026 0,0.01 -0.0049,0.02 -0.01295,0.026 l 0.109498,0 0.437983,0 c 0.02147,0 0.04347,9e-4 0.06329,0.01 0.01982,0.01 0.03675,0.024 0.04621,0.043 0.108407,-0.019 0.220082,-0.019 0.328489,0 0.07393,0.013 0.146034,0.034 0.21899,0.052 0.107887,0.026 0.217845,0.043 0.328488,0.052 l 0.109498,0.052 0.218991,0 0.109498,0.052 c 0.0049,-0.01 0.01274,-0.019 0.02237,-0.025 0.0096,-0.01 0.021,-0.01 0.03239,-0.01 0.01139,0 0.02276,0 0.03239,0.01 0.0096,0.01 0.01748,0.015 0.02237,0.025 0.0077,0.016 0.0077,0.036 0,0.052 l 0.21899,0 0,0.052 c 0.0049,-0.01 0.01274,-0.019 0.02236,-0.025 0.0096,-0.01 0.021,-0.01 0.03238,-0.01 0.01139,0 0.02276,0 0.03238,0.01 0.0096,0.01 0.01748,0.015 0.02236,0.025 0.0077,0.016 0.0077,0.036 0,0.052 0.0049,-0.01 0.01274,-0.019 0.02236,-0.025 0.0096,-0.01 0.021,-0.01 0.03239,-0.01 0.01139,0 0.02276,0 0.03238,0.01 0.0096,0.01 0.01748,0.015 0.02236,0.025 0.0077,0.016 0.0077,0.036 0,0.052 0.0049,-0.01 0.01282,-0.019 0.02244,-0.025 0.0096,-0.01 0.02096,-0.01 0.03231,-0.01 0.01135,0 0.02269,0 0.03231,0.01 0.0096,0.01 0.01749,0.015 0.02244,0.025 0.008,0.016 0.008,0.036 0,0.053 l 0.109498,0 0,0.1063 c 0.0024,-0.013 0.0093,-0.024 0.01922,-0.032 0.0099,-0.01 0.02269,-0.013 0.03553,-0.013 0.01284,0 0.02563,0 0.03553,0.013 0.0099,0.01 0.01681,0.02 0.01922,0.032 0.0033,0.017 -0.0016,0.035 0,0.052 0.0011,0.012 0.0054,0.024 0.01238,0.034 0.007,0.01 0.01656,0.018 0.02754,0.023 0.01099,0.01 0.02335,0.01 0.03548,0.01 0.01213,-9e-4 0.02401,-0 0.0341,-0.012 l 0,0.052 0.109498,0 0,0.1063 c 0.003,-0.012 0.01017,-0.023 0.02,-0.031 0.0098,-0.01 0.02227,-0.012 0.03475,-0.012 0.01248,0 0.02492,0 0.03475,0.012 0.0098,0.01 0.01699,0.019 0.02,0.031 0.0042,0.017 4.18e-4,0.035 0,0.052 -6.12e-4,0.026 0.0062,0.051 0.01951,0.073 0.01326,0.022 0.03288,0.04 0.05581,0.051 0.02292,0.011 0.04907,0.015 0.07437,0.012 0.0253,-0 0.04967,-0.014 0.0693,-0.03 l 0,0.052 c 0.0049,-0.01 0.01274,-0.019 0.02236,-0.025 0.0096,-0.01 0.021,-0.01 0.03239,-0.01 0.01139,0 0.02276,0 0.03238,0.01 0.0096,0.01 0.01748,0.015 0.02236,0.025 0.0077,0.016 0.0077,0.036 0,0.052 0.0049,-0.01 0.01274,-0.019 0.02236,-0.025 0.0096,-0.01 0.021,-0.01 0.03238,-0.01 0.01139,0 0.02276,0 0.03239,0.01 0.0096,0.01 0.01748,0.015 0.02236,0.025 0.0077,0.016 0.0077,0.036 0,0.052 0.0049,-0.01 0.01274,-0.019 0.02236,-0.025 0.0096,-0.01 0.021,-0.01 0.03239,-0.01 0.01139,0 0.02276,0 0.03238,0.01 0.0096,0.01 0.01748,0.015 0.02236,0.025 0.0077,0.016 0.0077,0.036 0,0.052 l 0.109498,0.1063 0.109498,0 c 0.02963,0.042 0.06695,0.078 0.10951,0.1063 0.03374,0.023 0.07075,0.04 0.109498,0.052 0.03516,0.02 0.07179,0.037 0.109498,0.052 0.07017,0.027 0.14408,0.045 0.218992,0.052 0.06887,0.058 0.142143,0.1114 0.218993,0.1587 0.103733,0.064 0.213986,0.1171 0.328486,0.1586 -0.0057,0.01 -0.0088,0.017 -0.0088,0.026 0,0.01 0.0032,0.019 0.0088,0.026 0.0063,0.01 0.01543,0.014 0.02507,0.018 0.0096,0 0.01985,0.01 0.03,0.01 0.01015,0 0.02035,0 0.02991,0.01 0.0096,0 0.01854,0.01 0.02452,0.018 0.0052,0.01 0.0079,0.016 0.0088,0.025 8.31e-4,0.01 -1.24e-4,0.018 -0.0017,0.027 -0.0031,0.018 -0.0086,0.036 -0.0071,0.054 0.001,0.012 0.0053,0.024 0.01222,0.034 0.0069,0.01 0.01655,0.018 0.02758,0.023 0.01102,0.01 0.02342,0.01 0.03559,0.01 0.01216,-10e-4 0.02405,-0.01 0.03412,-0.012 -0.0055,0.017 -0.0055,0.035 0,0.052 0.007,0.021 0.02317,0.04 0.04359,0.049 0.02042,0.01 0.04483,0.011 0.06592,0 l 0,0.052 c 0.01813,0.063 0.05718,0.1195 0.109498,0.1588 0.03253,0.024 0.07001,0.042 0.109498,0.052 -0.0056,0.01 -0.0087,0.017 -0.0087,0.026 0,0.01 0.0031,0.019 0.0087,0.026 0.0062,0.01 0.01523,0.014 0.02479,0.018 0.0096,0 0.01974,0.01 0.02985,0.01 0.01011,0 0.02029,0 0.02988,0.01 0.0096,0 0.01866,0.01 0.02498,0.018 0.0056,0.01 0.0088,0.016 0.01009,0.025 0.0013,0.01 7.79e-4,0.018 -5.56e-4,0.027 -0.0027,0.018 -0.0086,0.036 -0.0095,0.054 -0.0016,0.029 0.0099,0.058 0.03056,0.078 0.02067,0.02 0.05023,0.031 0.07894,0.028 0,0.017 0,0.035 0,0.052 0,0.035 0,0.071 0,0.1063 0,0.07 0,0.1406 0,0.2109 0,0.017 0,0.035 0,0.052 0,0.01 -5.12e-4,0.017 -0.0013,0.026 -8.28e-4,0.01 -0.0017,0.018 0.0013,0.026 0.0024,0.01 0.0073,0.012 0.01305,0.016 0.0057,0 0.01233,0.01 0.01902,0.01 0.0134,0 0.02749,0.01 0.04027,0.012 0.01278,0.01 0.02396,0.015 0.03017,0.028 0.0031,0.01 0.005,0.013 0.006,0.02 9.68e-4,0.01 0.001,0.014 0.001,0.021 l 0,0.3699 c 0,0.027 -0.003,0.054 -0.0078,0.081 -0.0024,0.013 -0.0047,0.027 -0.0043,0.04 3.67e-4,0.014 0.0037,0.027 0.01207,0.038 0.0064,0.01 0.0154,0.014 0.02493,0.018 0.0095,0 0.01964,0.01 0.0297,0.01 0.01006,0 0.02018,0 0.02974,0.01 0.0096,0 0.01861,0.01 0.02513,0.017 0.0058,0.01 0.0094,0.016 0.01107,0.025 0.0017,0.01 0.0015,0.018 3.58e-4,0.027 -0.0023,0.018 -0.0084,0.036 -0.01143,0.054 -0.0028,0.017 -0.0028,0.035 0,0.052 0.0023,-0.013 0.0091,-0.025 0.01903,-0.033 0.0099,-0.01 0.02279,-0.013 0.03572,-0.013 0.01293,0 0.02581,0 0.03572,0.013 0.0099,0.01 0.01677,0.02 0.01903,0.033 0.0015,0.01 0.0011,0.017 6.66e-4,0.026 -4.12e-4,0.01 -6.66e-4,0.017 -6.66e-4,0.026 l 0,0.2108 0,0.2641 0,0.052 0,0.052 -0.21899,0 0,0.052 -0.218992,0 -0.109499,0 -0.76647,0 -0.985461,0 -0.218991,0 c -0.175901,-0.062 -0.361073,-0.098 -0.547481,-0.1063 -0.145868,-0.01 -0.291973,0 -0.43798,0 l -0.76647,0 c -0.07312,0 -0.146208,0 -0.219234,0.01 -0.07303,0 -0.146868,0.01 -0.218749,-0.01 -0.11333,-0.021 -0.215156,-0.085 -0.328486,-0.1063 -0.07188,-0.013 -0.145724,-0.01 -0.21875,-0.01 -0.07302,0 -0.146118,0.01 -0.219234,0.01 l -0.547479,0 c -0.05494,0 -0.109847,0 -0.164641,0.01 -0.05479,0 -0.110929,0.01 -0.163843,-0.01 -0.0392,-0.011 -0.07462,-0.032 -0.109498,-0.053 -0.03488,-0.021 -0.0703,-0.042 -0.109497,-0.053 -0.05291,-0.015 -0.10905,-0.011 -0.163844,-0.01 -0.05479,0 -0.109698,0.01 -0.164641,0.01 l -0.218992,0 -0.98546,0 -0.328486,0 -0.109493,0 -0.109513,0 c -0.01894,-0.049 -0.06001,-0.089 -0.109493,-0.1063 -0.05191,-0.018 -0.108803,-0.013 -0.163624,-0.01 -0.05482,0 -0.1098109,0.01 -0.1648614,0.01 l -0.1094932,0 -0.5474778,0 -0.3284875,0 -0.5474798,0.052 -1.046e-4,0.025"
       id="path3953-4-9-9"
       inkscape:path-effect="#path-effect3955-2-2-6"
       inkscape:original-d="m 8.3625997,1049.9843 c 0.061185,-0.1781 0.1578014,-0.3508 0.2189923,-0.5282 0.00601,-0.022 -0.00718,-0.034 0,-0.052 0.029516,-0.07 0.084748,-0.1394 0.1094932,-0.2108 0.012027,-0.034 -0.01435,-0.072 0,-0.1063 0.022632,-0.053 0.090526,-0.1048 0.1094933,-0.1586 0.018036,-0.052 0,-0.1063 0,-0.1586 0,-0.034 0,-0.072 0,-0.1063 0,-0.1761 0,-0.3524 0,-0.5286 0,-0.2106 0,-0.4224 0,-0.6339 0,-0.059 -0.019664,-0.2789 0,-0.3169 0.012606,-0.024 0.086415,-0.03 0.1094932,-0.052 0.01629,-0.022 -0.011641,-0.034 0,-0.052 0.025812,-0.037 0.089693,-0.068 0.1094932,-0.1063 0.017647,-0.034 0,-0.07 0,-0.1063 0,-0.022 -0.01629,-0.037 0,-0.052 0.023078,-0.022 0.086415,-0.032 0.1095125,-0.052 0.01629,-0.022 0,-0.034 0,-0.053 0.036497,-0.022 0.086415,-0.03 0.1094932,-0.052 0.01629,-0.022 -0.01629,-0.037 0,-0.052 0.023078,-0.022 0.093184,-0.029 0.1094932,-0.052 0.023097,-0.032 -0.023078,-0.072 0,-0.1063 0.00446,0 0.2020293,-0.093 0.2189924,-0.1063 0.045264,-0.032 0.064229,-0.073 0.1094932,-0.1063 0.028624,-0.022 0.093184,-0.029 0.1094932,-0.052 0.023098,-0.032 -0.023078,-0.073 0,-0.1063 0.01629,-0.024 0.072996,-0.034 0.1094932,-0.052 0.036497,-0.022 0.060526,-0.046 0.1094932,-0.052 0.06925,0 0.158247,0.022 0.21899,0 0.0665,-0.066 0.09359,-0.1178 0.218993,-0.1586 0.0679,-0.022 0.151091,-0.03 0.21899,-0.052 0.04296,-0.022 0.06332,-0.042 0.109493,-0.052 0.03266,0 0.0837,0.022 0.109513,0 0.05771,-0.029 0.05178,-0.078 0.109493,-0.1063 0.02581,-0.022 0.09318,0.022 0.109493,0 0.03266,-0.032 0,-0.07 0,-0.1063 0.0365,0 0.09318,0.022 0.109493,0 0.03266,-0.03 -0.03266,-0.073 0,-0.1063 0.0054,0 0.318035,0 0.437981,0 0.328488,0 0.656974,0 0.985462,0 0.0365,0 0.073,0 0.109498,0 0.0365,0 0.08368,-0.022 0.109498,0 0.02582,0.022 -0.02581,0.042 0,0.052 0.02582,0.022 0.073,0 0.109498,0 0.09269,0 0.379117,0 0.437983,0 0.04897,0 0.06052,0.046 0.109498,0.052 0.09853,0.022 0.229941,-0.022 0.328489,0 0.07743,0.022 0.14157,0.042 0.21899,0.052 0.325952,0.052 -0.224662,-0.1236 0.328488,0.052 0.04296,0.022 0.06332,0.042 0.109498,0.052 0.0653,0.022 0.15369,-0.022 0.218991,0 0.04618,0 0.06332,0.042 0.109498,0.052 0.03266,0 0.08369,-0.022 0.10951,0 0.02581,0.022 -0.02582,0.042 0,0.052 0.05162,0.026 0.167381,-0.026 0.21899,0 0.02581,0.022 -0.02582,0.042 0,0.052 0.02581,0.022 0.08369,-0.021 0.109498,0 0.02582,0.022 -0.02582,0.042 0,0.052 0.02582,0.022 0.08371,-0.022 0.109498,0 0.02581,0.022 -0.02582,0.042 0,0.052 0.02581,0.021 0.08371,-0.022 0.109498,0 0.02581,0.021 -0.02581,0.042 0,0.053 0.02581,0.022 0.08368,-0.022 0.109498,0 0.05162,0.026 -0.05162,0.081 0,0.1063 0.02581,0.022 0.08371,-0.021 0.109498,0 0.02581,0.022 -0.01628,0.037 0,0.052 0.02308,0.021 0.08641,0.03 0.109498,0.052 0.01628,0.021 -0.02582,0.042 0,0.052 0.02581,0.022 0.08371,-0.022 0.109498,0 0.05162,0.026 -0.05162,0.08 0,0.1063 0.02582,0.022 0.08371,-0.022 0.109498,0 0.02581,0.022 -0.01628,0.037 0,0.052 0.04618,0.043 0.172831,0.06 0.218993,0.1063 0.01628,0.022 -0.02582,0.042 0,0.052 0.02581,0.022 0.08368,-0.022 0.109498,0 0.02582,0.022 -0.02582,0.042 0,0.052 0.02582,0.022 0.08369,-0.022 0.109498,0 0.02581,0.022 -0.02582,0.042 0,0.052 0.02581,0.022 0.08371,-0.022 0.109498,0 0.02581,0.022 0,0.034 0,0.052 0.0365,0.034 0.05177,0.078 0.109498,0.1063 0.02581,0.022 0.08371,-0.022 0.109498,0 0.05771,0.029 0.06422,0.073 0.10951,0.1063 0.02863,0.022 0.07299,0.034 0.109498,0.052 0.0365,0.022 0.06654,0.039 0.109498,0.052 0.06792,0.022 0.161293,0.026 0.218992,0.052 0.132591,0.1278 0.05178,0.078 0.218993,0.1587 0.04647,0.022 0.308365,0.1393 0.328486,0.1586 0.01628,0.022 -0.01629,0.036 0,0.052 0.0231,0.022 0.09319,0.032 0.109498,0.052 0.0231,0.032 -0.02308,0.072 0,0.1063 0.01628,0.024 0.08641,0.03 0.109498,0.052 0.01628,0.022 -0.01629,0.037 0,0.052 0.02308,0.022 0.08642,0.03 0.10951,0.052 0.01628,0.022 -0.0089,0.037 0,0.052 0.02799,0.055 0.05789,0.1092 0.109498,0.1588 0.02308,0.021 0.08642,0.03 0.109498,0.052 0.01628,0.021 -0.01629,0.037 0,0.052 0.02308,0.022 0.09319,0.029 0.109498,0.052 0.02308,0.032 -0.01765,0.072 0,0.1063 0.0198,0.039 0.08371,0.068 0.109498,0.1063 0.01158,0.022 0,0.034 0,0.052 0,0.034 0,0.072 0,0.1063 0,0.072 0,0.1408 0,0.2109 0,0.022 0,0.034 0,0.052 0,0.022 -0.01628,0.036 0,0.052 0.135305,0.1307 0.109498,-0.022 0.109498,0.1063 0,0.1235 0,0.2466 0,0.3699 0,0.024 -0.01668,0.1437 0,0.1586 0.02308,0.022 0.09319,0.029 0.109498,0.052 0.0231,0.032 0,0.072 0,0.1063 0,0.022 -0.02582,0.039 0,0.052 0.02582,0.022 0.08371,-0.021 0.109498,0 0.02582,0.022 0,0.035 0,0.052 0,0.072 0,0.1407 0,0.2108 0,0.088 0,0.176 0,0.2641 0,0.022 0,0.034 0,0.052 0,0.022 0.03266,0.046 0,0.052 -0.0653,0.022 -0.153689,-0.022 -0.21899,0 -0.03266,0 0.03265,0.046 0,0.052 -0.0653,0.022 -0.145992,0 -0.218992,0 -0.0365,0 -0.07299,0 -0.109499,0 -0.255489,0 -0.510979,0 -0.76647,0 -0.328487,0 -0.656975,0 -0.985461,0 -0.07299,0 -0.148802,0 -0.218991,0 -0.188986,-0.026 -0.355609,-0.085 -0.547481,-0.1063 -0.14252,-0.022 -0.291987,0 -0.43798,0 -0.255491,0 -0.510981,0 -0.76647,0 -0.145991,0 -0.297604,0.022 -0.437983,0 -0.12654,-0.022 -0.201954,-0.089 -0.328486,-0.1063 -0.140366,-0.021 -0.291989,0 -0.437984,0 -0.169922,0 -0.383817,0 -0.547479,0 -0.109498,0 -0.226822,0.022 -0.328484,0 -0.09584,-0.021 -0.123146,-0.088 -0.218995,-0.1063 -0.101658,-0.022 -0.218988,0 -0.328485,0 -0.073,0 -0.145991,0 -0.218992,0 -0.328485,0 -0.656973,0 -0.98546,0 -0.109494,0 -0.218991,0 -0.328486,0 -0.0365,0 -0.073,0 -0.109493,0 -0.0365,0 -0.0837,0.022 -0.109513,0 -0.05771,-0.029 -0.0365,-0.088 -0.109493,-0.1063 -0.09793,-0.024 -0.21899,0 -0.3284854,0 -0.036497,0 -0.072996,0 -0.1094932,0 -0.1824888,0 -0.3649852,0 -0.5474778,0 -0.1094932,0 -0.2200938,0 -0.3284875,0 -0.1842342,0.022 -0.3649853,0.034 -0.5474798,0.052 z"
       inkscape:connector-curvature="0" />
  </g>
</svg>
